<svg id="Layer_1" enable-background="new 0 0 512 512" height="512" viewBox="0 0 512 512" width="512" xmlns="http://www.w3.org/2000/svg"><g><g fill="#f76ba0"><ellipse cx="22.461" cy="164.695" rx="14.961" ry="15.015"/><ellipse cx="22.461" cy="338.795" rx="14.961" ry="15.015"/><ellipse cx="489.539" cy="164.695" rx="14.961" ry="15.015"/><ellipse cx="489.539" cy="338.795" rx="14.961" ry="15.015"/></g><g><path d="m419.2 360.15c.92 3.71 1.56 7.53 1.59 11.53.21 27.2-21.65 51.88-48.84 52.09-1.87.01-3.64-.32-5.45-.51-8.98 19.74-30.91 33.6-54.01 33.78-31.73.25-57.67-27.74-57.91-59.47v.44c0 31.55-25.41 59.67-56.99 59.92-23.11.18-40.73-13.38-50.01-32.98-1.8.22-3.57.58-5.44.59-27.2.21-49.43-24.12-49.64-51.32-.03-4 .55-7.83 1.41-11.55-10.92-8.95-18.09-22.34-18.2-37.57-.1-12.67 4.72-24.14 12.52-32.93-8.19-8.94-12.96-22.95-13.05-35.19-.14-17.51 8.95-32.86 22.66-41.69-4.12-7.14-6.69-15.28-6.75-24.09-.17-21.98 14.06-42.31 33.89-49.42 0-.08-7.22-22.09 10.26-39.86 6.15-6.24 14.29-10.53 23.4-11.83 6.5-19.37 24.72-35.85 46.29-36.02 27.2-.21 49.44 24.13 49.65 51.33v-.39c0-27.04 21.77-51.49 48.84-51.7 21.58-.17 40.04 16.03 46.84 35.3 9.13 1.16 17.34 5.32 23.58 11.46 18.03 17.78 10.85 39.46 10.88 39.7 19.93 6.8 34.48 26.91 34.65 48.89.07 8.81-2.37 16.99-6.38 24.19 13.84 8.62 23.17 23.83 23.3 41.34.1 12.22-4.45 26.31-12.5 35.39 7.93 8.67 12.93 20.06 13.03 32.73.12 15.23-6.83 28.72-17.62 37.84z" fill="#f76ba0"/><path d="m419.2 360.15c.92 3.71 1.56 7.53 1.59 11.53.21 27.2-21.65 51.88-48.84 52.09-1.87.01-3.64-.32-5.45-.51-8.98 19.74-30.91 33.6-54.01 33.78-5.88.05-11.57-.88-16.93-2.62-23.54-7.64-40.78-31-40.98-56.85v-292.56c0-21.12 13.28-40.66 31.99-48.3 5.24-2.14 10.92-3.35 16.85-3.4 21.58-.17 40.04 16.03 46.84 35.3 9.13 1.16 17.34 5.32 23.58 11.46 18.03 17.78 10.85 39.46 10.88 39.7 19.93 6.8 34.48 26.91 34.65 48.89.07 8.81-2.37 16.99-6.38 24.19 13.84 8.62 23.17 23.83 23.3 41.34.1 12.22-4.45 26.31-12.5 35.39 7.93 8.67 12.93 20.06 13.03 32.73.12 15.23-6.83 28.72-17.62 37.84z" fill="#ce547e"/><path d="m419.2 360.15c.92 3.71 1.56 7.53 1.59 11.53.21 27.2-21.65 51.88-48.84 52.09-1.87.01-3.64-.32-5.45-.51-8.98 19.74-30.91 33.6-54.01 33.78-5.88.05-11.57-.88-16.93-2.62 16.27-4.93 30.23-16.4 36.94-31.16 1.81.19 3.58.52 5.45.51 27.19-.21 49.05-24.89 48.84-52.09-.03-4-.67-7.82-1.59-11.53 10.79-9.12 17.74-22.61 17.62-37.84-.1-12.67-5.1-24.06-13.03-32.73 8.05-9.08 12.6-23.17 12.5-35.39-.13-17.51-9.46-32.72-23.3-41.34 4.01-7.2 6.45-15.38 6.38-24.19-.17-21.98-14.72-42.09-34.65-48.89-.03-.24 7.15-21.92-10.88-39.7-6.24-6.14-14.45-10.3-23.58-11.46-4.9-13.89-15.86-26.19-29.69-31.9 5.24-2.14 10.92-3.35 16.85-3.4 21.58-.17 40.04 16.03 46.84 35.3 9.13 1.16 17.34 5.32 23.58 11.46 18.03 17.78 10.85 39.46 10.88 39.7 19.93 6.8 34.48 26.91 34.65 48.89.07 8.81-2.37 16.99-6.38 24.19 13.84 8.62 23.17 23.83 23.3 41.34.1 12.22-4.45 26.31-12.5 35.39 7.93 8.67 12.93 20.06 13.03 32.73.12 15.23-6.83 28.72-17.62 37.84z" fill="#95517b"/></g><g fill="#83d4ee"><ellipse cx="205.559" cy="101.621" rx="14.961" ry="15.015"/><ellipse cx="197.559" cy="410.807" rx="14.961" ry="15.015"/><ellipse cx="159.559" cy="251.745" rx="14.961" ry="15.015"/><ellipse cx="306.441" cy="101.621" rx="14.961" ry="15.015"/><ellipse cx="314.441" cy="410.807" rx="14.961" ry="15.015"/><ellipse cx="352.441" cy="251.745" rx="14.961" ry="15.015"/></g></g><g><path d="m163.986 77.816c3.168 2.67 7.898 2.266 10.568-.902 8.145-9.665 19.239-15.257 30.437-15.343 10.916-.094 21.372 4.55 29.446 13.049 7.945 8.363 12.552 19.602 12.638 30.833v227.321c0 4.142 3.358 7.5 7.5 7.5s7.5-3.358 7.5-7.5v-227.32c.086-11.231 4.693-22.47 12.638-30.833 8.002-8.424 18.344-13.051 29.153-13.051.097 0 .196 0 .293.001 11.198.086 22.292 5.678 30.437 15.343 2.669 3.168 7.402 3.572 10.568.902 3.167-2.669 3.571-7.401.902-10.568-10.973-13.021-26.205-20.557-41.791-20.677-15.132-.117-29.473 6.176-40.438 17.718-3.636 3.828-6.746 8.117-9.263 12.709-2.518-4.592-5.627-8.881-9.263-12.709-10.965-11.542-25.339-17.811-40.437-17.718-15.586.12-30.818 7.656-41.791 20.677-2.668 3.167-2.265 7.899.903 10.568z"/><path d="m92.704 109.121h91.676c3.089 8.739 11.416 15.016 21.179 15.016 12.385 0 22.461-10.101 22.461-22.516s-10.076-22.515-22.461-22.515c-9.763 0-18.091 6.276-21.179 15.015h-91.676c-4.142 0-7.5 3.358-7.5 7.5s3.358 7.5 7.5 7.5zm112.855-15.015c4.114 0 7.461 3.371 7.461 7.515s-3.347 7.516-7.461 7.516-7.46-3.372-7.46-7.516 3.346-7.515 7.46-7.515z"/><path d="m2.672 88.817 22.044 18.543c1.352 1.137 3.062 1.761 4.828 1.761h28.062c4.142 0 7.5-3.358 7.5-7.5s-3.358-7.5-7.5-7.5h-25.327l-19.951-16.782c-3.172-2.668-7.902-2.259-10.567.911-2.667 3.17-2.258 7.901.911 10.567z"/><path d="m197.559 433.323c12.385 0 22.461-10.101 22.461-22.516s-10.076-22.516-22.461-22.516c-9.763 0-18.091 6.277-21.179 15.016h-146.325c-1.767 0-3.476.624-4.828 1.761l-22.045 18.544c-3.17 2.666-3.578 7.397-.912 10.567 1.483 1.764 3.606 2.672 5.743 2.672 1.704 0 3.418-.578 4.824-1.761l19.952-16.783h143.59c3.089 8.74 11.417 15.016 21.18 15.016zm0-30.031c4.114 0 7.461 3.372 7.461 7.516s-3.347 7.516-7.461 7.516-7.46-3.372-7.46-7.516 3.346-7.516 7.46-7.516z"/><path d="m182.02 251.745c0-12.415-10.076-22.515-22.461-22.515-9.763 0-18.091 6.276-21.179 15.015h-130.37c-4.142 0-7.5 3.358-7.5 7.5s3.358 7.5 7.5 7.5h130.37c3.089 8.739 11.416 15.016 21.179 15.016 12.384 0 22.461-10.101 22.461-22.516zm-29.922 0c0-4.144 3.347-7.515 7.46-7.515s7.461 3.371 7.461 7.515-3.347 7.516-7.461 7.516-7.46-3.372-7.46-7.516z"/><path d="m22.461 187.211c9.763 0 18.091-6.277 21.179-15.016h42.961c-2.006 6.074-3.066 12.507-3.016 19.062.058 7.467 1.635 14.755 4.698 21.743-1.074.888-2.116 1.814-3.12 2.775-2.992 2.864-3.096 7.612-.232 10.604 1.473 1.539 3.444 2.314 5.419 2.314 1.864 0 3.732-.691 5.185-2.082 1.952-1.868 4.093-3.558 6.364-5.021 3.362-2.167 4.433-6.59 2.433-10.054-3.76-6.513-5.694-13.375-5.748-20.395-.143-18.452 12.021-36.242 28.923-42.3 2.981-1.068 4.97-3.894 4.97-7.06 0-.716-.124-1.501-.325-2.188-.276-.939-1.175-4.375-1.149-9.15.022-4.142-3.318-7.518-7.46-7.54h-.041c-4.123 0-7.477 3.332-7.499 7.46-.014 2.588.169 4.927.429 6.927-9.099 4.54-16.812 11.498-22.473 19.905h-50.319c-3.089-8.739-11.416-15.015-21.179-15.015-12.385 0-22.461 10.1-22.461 22.515s10.076 22.516 22.461 22.516zm0-30.031c4.114 0 7.46 3.371 7.46 7.515s-3.347 7.516-7.46 7.516-7.461-3.372-7.461-7.516 3.347-7.515 7.461-7.515z"/><path d="m22.461 361.311c9.763 0 18.091-6.277 21.179-15.016h28.911c2.986 7.116 7.444 13.632 13.171 19.125-.506 3.093-.743 6.019-.722 8.857.025 3.165.313 6.36.855 9.498.631 3.649 3.8 6.224 7.381 6.224.424 0 .854-.036 1.287-.111 4.082-.706 6.818-4.586 6.112-8.668-.403-2.334-.618-4.71-.636-7.059-.023-3.008.364-6.121 1.218-9.796.646-2.782-.343-5.689-2.552-7.499-9.731-7.973-15.366-19.571-15.46-31.823-.08-10.168 3.697-20.074 10.634-27.891 2.549-2.874 2.516-7.208-.077-10.042-2.236-2.443-4.232-5.434-5.934-8.888-1.829-3.716-6.326-5.245-10.042-3.416-3.716 1.83-5.245 6.326-3.416 10.042 1.291 2.621 2.726 5.069 4.293 7.326-6.873 9.691-10.551 21.193-10.459 32.985.016 2.062.146 4.109.387 6.135h-24.951c-3.089-8.739-11.416-15.015-21.179-15.015-12.385 0-22.46 10.1-22.46 22.515s10.075 22.517 22.46 22.517zm0-30.031c4.114 0 7.46 3.371 7.46 7.515s-3.347 7.516-7.46 7.516-7.461-3.371-7.461-7.515 3.347-7.516 7.461-7.516z"/><path d="m306.441 79.106c-12.385 0-22.461 10.1-22.461 22.515s10.076 22.516 22.461 22.516c9.763 0 18.091-6.277 21.179-15.016h154.835c1.767 0 3.476-.624 4.828-1.761l22.044-18.543c3.169-2.666 3.578-7.397.911-10.567-2.666-3.169-7.397-3.578-10.567-.911l-19.951 16.783h-152.1c-3.088-8.74-11.416-15.016-21.179-15.016zm0 30.031c-4.114 0-7.461-3.372-7.461-7.516s3.347-7.515 7.461-7.515 7.46 3.371 7.46 7.515-3.346 7.516-7.46 7.516z"/><path d="m508.818 423.612-22.045-18.543c-1.352-1.137-3.061-1.761-4.828-1.761h-146.324c-3.089-8.739-11.416-15.016-21.179-15.016-12.385 0-22.461 10.101-22.461 22.516s10.076 22.516 22.461 22.516c9.763 0 18.091-6.277 21.179-15.016h143.59l19.952 16.783c1.406 1.183 3.12 1.761 4.824 1.761 2.137 0 4.26-.909 5.743-2.672 2.666-3.171 2.258-7.902-.912-10.568zm-194.377-5.289c-4.114 0-7.461-3.372-7.461-7.516s3.347-7.516 7.461-7.516 7.46 3.372 7.46 7.516-3.346 7.516-7.46 7.516z"/><path d="m373.621 259.245h130.37c4.142 0 7.5-3.358 7.5-7.5s-3.358-7.5-7.5-7.5h-130.37c-3.089-8.739-11.416-15.015-21.179-15.015-12.385 0-22.461 10.1-22.461 22.515s10.076 22.516 22.461 22.516c9.762 0 18.09-6.277 21.179-15.016zm-21.18.016c-4.114 0-7.461-3.372-7.461-7.516s3.347-7.515 7.461-7.515 7.46 3.371 7.46 7.515-3.346 7.516-7.46 7.516z"/><path d="m489.54 142.18c-9.763 0-18.091 6.276-21.179 15.015h-53.171c-5.661-8.407-13.374-15.365-22.472-19.905.26-1.999.443-4.338.429-6.927-.022-4.128-3.375-7.46-7.499-7.46h-.041c-4.142.022-7.482 3.398-7.46 7.54.025 4.775-.874 8.21-1.149 9.15-.202.687-.325 1.473-.325 2.188 0 3.167 1.989 5.992 4.97 7.06 16.902 6.058 29.066 23.848 28.923 42.3-.054 7.02-1.988 13.881-5.748 20.395-2 3.464-.929 7.887 2.433 10.054 2.271 1.464 4.413 3.153 6.364 5.021 1.453 1.391 3.32 2.082 5.185 2.082 1.974 0 3.946-.775 5.419-2.314 2.864-2.992 2.76-7.74-.232-10.604-1.004-.961-2.045-1.888-3.12-2.775 3.063-6.988 4.64-14.276 4.698-21.743.051-6.555-1.01-12.988-3.016-19.062h45.812c3.089 8.739 11.416 15.016 21.179 15.016 12.385 0 22.46-10.101 22.46-22.516s-10.076-22.515-22.46-22.515zm0 30.031c-4.114 0-7.46-3.372-7.46-7.516s3.347-7.515 7.46-7.515 7.46 3.371 7.46 7.515-3.347 7.516-7.46 7.516z"/><path d="m489.54 316.28c-9.763 0-18.091 6.276-21.179 15.015h-27.802c.241-2.026.371-4.073.387-6.135.091-11.792-3.588-23.295-10.46-32.986 1.568-2.257 3.003-4.706 4.293-7.326 1.829-3.716.3-8.212-3.417-10.042-3.717-1.829-8.212-.299-10.042 3.417-1.7 3.453-3.696 6.443-5.933 8.888-2.593 2.833-2.626 7.168-.077 10.042 6.937 7.817 10.714 17.723 10.635 27.892-.094 12.251-5.73 23.85-15.46 31.822-2.209 1.81-3.199 4.717-2.552 7.499.854 3.675 1.241 6.788 1.218 9.794-.018 2.35-.232 4.726-.636 7.06-.706 4.082 2.031 7.962 6.112 8.668.433.075.862.111 1.287.111 3.582 0 6.75-2.575 7.381-6.224.542-3.138.831-6.333.855-9.499.021-2.838-.216-5.764-.722-8.856 5.727-5.493 10.185-12.009 13.171-19.125h31.76c3.089 8.739 11.416 15.016 21.179 15.016 12.385 0 22.46-10.101 22.46-22.516s-10.074-22.515-22.458-22.515zm0 30.031c-4.114 0-7.46-3.372-7.46-7.516s3.347-7.515 7.46-7.515 7.46 3.371 7.46 7.515-3.347 7.516-7.46 7.516z"/><path d="m356.061 435.302c-3.047-2.807-7.792-2.611-10.598.436-8.946 9.713-20.661 14.78-33.842 14.691-26.81-.207-49.32-23.916-49.546-51.964v-31.041c0-4.142-3.358-7.5-7.5-7.5s-7.5 3.358-7.5 7.5v31.041c-.226 28.048-22.735 51.758-49.546 51.964-.13.001-.26.002-.39.002-13.033 0-24.594-5.076-33.452-14.693-2.807-3.047-7.552-3.242-10.598-.436-3.047 2.806-3.242 7.551-.436 10.598 11.775 12.785 27.143 19.531 44.472 19.531.172 0 .347-.001.519-.002 24.372-.188 46.013-15.151 56.93-36.466 10.917 21.315 32.557 36.278 56.93 36.466.173.001.346.002.519.002 17.329 0 32.698-6.747 44.473-19.531 2.806-3.047 2.611-7.792-.435-10.598z"/><path d="m158.834 354.02c19.983 0 36.24-16.257 36.24-36.24 0-4.142-3.358-7.5-7.5-7.5s-7.5 3.358-7.5 7.5c0 11.711-9.528 21.24-21.24 21.24-4.142 0-7.5 3.358-7.5 7.5s3.357 7.5 7.5 7.5z"/><path d="m215.073 196.688c0-4.142-3.358-7.5-7.5-7.5-11.711 0-21.24-9.528-21.24-21.24 0-4.142-3.358-7.5-7.5-7.5s-7.5 3.358-7.5 7.5c0 19.983 16.257 36.24 36.24 36.24 4.142 0 7.5-3.358 7.5-7.5z"/><path d="m350.314 354.02c4.142 0 7.5-3.358 7.5-7.5s-3.358-7.5-7.5-7.5c-11.712 0-21.24-9.528-21.24-21.24 0-4.142-3.358-7.5-7.5-7.5s-7.5 3.358-7.5 7.5c-.001 19.983 16.257 36.24 36.24 36.24z"/><path d="m337.814 167.948c0-4.142-3.358-7.5-7.5-7.5s-7.5 3.358-7.5 7.5c0 11.711-9.528 21.24-21.24 21.24-4.142 0-7.5 3.358-7.5 7.5s3.358 7.5 7.5 7.5c19.982 0 36.24-16.257 36.24-36.24z"/></g></svg>