<svg id="Layer_1" height="512" viewBox="0 0 64 64" width="512" xmlns="http://www.w3.org/2000/svg" data-name="Layer 1"><g fill="#81d4fa"><circle cx="32" cy="32" r="9"/><circle cx="15" cy="8" r="6"/><circle cx="48" cy="56" r="6"/></g><circle cx="56" cy="16" fill="#fff" r="6"/><circle cx="8" cy="48" fill="#fff" r="6"/><path d="m40.99 31.54a9.0009 9.0009 0 0 0 -17.99.46 7 7 0 1 1 7 7 7.0077 7.0077 0 0 1 -7-7 9.00085 9.00085 0 1 0 17.99-.46z" opacity=".1"/><path d="m13.97 47.39a5.99731 5.99731 0 0 0 -11.95.2 4.00236 4.00236 0 0 1 3.98-3.59c5.19159-.0768 5.18915 8.0774 0 8a4.00236 4.00236 0 0 1 -3.98-3.59 5.99758 5.99758 0 1 0 11.95-1.02zm1.03-45.39a6 6 0 0 0 -5.98 5.59 4 4 0 1 1 0 .82 5.9971 5.9971 0 1 0 5.98-6.41zm38.97 53.39a5.99731 5.99731 0 0 0 -11.95.2 4 4 0 1 1 0 .82 5.99758 5.99758 0 1 0 11.95-1.02zm8-40a5.99731 5.99731 0 0 0 -11.95.2 4.00236 4.00236 0 0 1 3.98-3.59c5.19159-.0768 5.18915 8.0774 0 8a4.00236 4.00236 0 0 1 -3.98-3.59 5.99758 5.99758 0 1 0 11.95-1.02z" opacity=".1"/><circle cx="30" cy="32" opacity=".1" r="2"/><path d="m32 21a11 11 0 1 0 11 11 11.01245 11.01245 0 0 0 -11-11zm0 18a7 7 0 1 1 7-7 7.00818 7.00818 0 0 1 -7 7z" fill="#4d4d4d"/><path d="m54.69824 32.915a33.85517 33.85517 0 0 0 3.26337-9.16846 7.99381 7.99381 0 1 0 -4.45461-15.34346c-3.6063-2.80017-8.799-3.52408-14.80387-2.01246a1.99974 1.99974 0 1 0 .9746 3.87891c4.11853-1.03522 7.646-.81323 10.22205.567a7.98191 7.98191 0 0 0 3.98407 12.87024 27.89329 27.89329 0 0 1 -1.18158 3.89141c-6.623-10.362-17.92786-19.75972-30.00183-21.73889a7.99327 7.99327 0 1 0 -14.927 5.54962c-2.25739 3.55188-2.76355 8.41858-1.38281 13.909a1.99985 1.99985 0 0 0 3.8789-.97558c-.96-3.81971-.83673-7.16425.29285-9.69092a7.98489 7.98489 0 0 0 12.19378-4.72685 26.81363 26.81363 0 0 1 4.83784 1.37524c-10.13565 6.49538-19.16868 17.25567-21.55561 28.95362a7.99388 7.99388 0 1 0 4.45 15.34521 14.46064 14.46064 0 0 0 8.99115 2.7583 29.4003 29.4003 0 0 0 12.52033-3.21637 32.66847 32.66847 0 0 0 8.25378 2.82178 7.99382 7.99382 0 1 0 15.34345-4.45495c2.79992-3.60773 3.52356-8.80237 2.01233-14.81452a1.99974 1.99974 0 1 0 -3.87891.97461c1.03607 4.12384.81354 7.65454-.567 10.2323a7.982 7.982 0 0 0 -12.86889 3.97864 25.377 25.377 0 0 1 -3.903-1.17316 52.42745 52.42745 0 0 0 9.04-7.26922 50.59471 50.59471 0 0 0 9.26661-12.52104zm-6.69824 19.085a4 4 0 1 1 -4 4 4.00427 4.00427 0 0 1 4-4zm4-36a4 4 0 1 1 4 4 4.00427 4.00427 0 0 1 -4-4zm-37-4a4 4 0 1 1 4-4 4.00427 4.00427 0 0 1 -4 4zm-11 36a4 4 0 1 1 4 4 4.00427 4.00427 0 0 1 -4-4zm27.08691 3.14062c-6.7669 3.47071-13.01281 4.164-16.99542 2.03248a7.98134 7.98134 0 0 0 -3.97528-12.87983 27.89036 27.89036 0 0 1 1.18152-3.89141 54.17953 54.17953 0 0 0 13.35657 14.29834 1.99969 1.99969 0 1 0 2.37109-3.22071 49.14519 49.14519 0 0 1 -13.67273-15.47876 48.69 48.69 0 0 1 18.64634-18.64807 47.12335 47.12335 0 0 1 10.60651 8.04187 46.00117 46.00117 0 0 1 8.04189 10.60474 48.86788 48.86788 0 0 1 -19.56049 19.14135z" fill="#4d4d4d"/><circle cx="32" cy="32" fill="#fff" r="2"/></svg>