<svg xmlns="http://www.w3.org/2000/svg" width="320.434" height="345.599" viewBox="0 0 320.434 345.599">
  <g>
    <path d="M40.007,311.893,144.97,345.086,291.2,319.967l28.708-127.391L291.2,135.16,299.275.592,144.97,25.712H29.242V135.16L.534,220.387Z" stroke="none"/>
    <path d="M 144.9350891113281 345.5985107421875 L 144.819580078125 345.5619812011719 L 39.85659408569336 312.3685302734375 L 39.63930511474609 312.2998046875 L 39.54901504516602 312.0905456542969 L 0.07573838531970978 220.5842742919922 L 0 220.4087524414063 L 0.06106559559702873 220.2275543212891 L 28.74277877807617 135.0786743164063 L 28.74277877807617 25.71178245544434 L 28.74277877807617 25.21302795410156 L 29.24153137207031 25.21302795410156 L 144.9296569824219 25.21302795410156 L 299.1944580078125 0.1002133339643478 L 299.8097839355469 6.088294685469009e-05 L 299.7723999023438 0.622345507144928 L 291.7063293457031 135.0568237304688 L 320.3544311523438 192.35302734375 L 320.4340209960938 192.5121154785156 L 320.3948669433594 192.6856994628906 L 291.6870422363281 320.0766906738281 L 291.6136779785156 320.402099609375 L 291.284912109375 320.4585571289063 L 145.0544128417969 345.5780029296875 L 144.9350891113281 345.5985107421875 Z M 40.37464904785156 311.4861755371094 L 145.0049133300781 344.5744018554688 L 290.7872314453125 319.531982421875 L 319.3826293945313 192.6399688720703 L 290.7543640136719 135.3833923339844 L 290.694580078125 135.2638854980469 L 290.7026062011719 135.1304931640625 L 298.7394104003906 1.184903860092163 L 145.0500946044922 26.20401954650879 L 145.0102691650391 26.21053504943848 L 144.969970703125 26.21053504943848 L 29.74028396606445 26.21053504943848 L 29.74028396606445 135.1603851318359 L 29.74028396606445 135.2420959472656 L 29.71416664123535 135.3195343017578 L 1.067399859428406 220.3647308349609 L 40.37464904785156 311.4861755371094 Z" stroke="none" fill="#fff"/>
  </g>
</svg>
