<svg xmlns="http://www.w3.org/2000/svg" width="310.618" height="324.416" viewBox="0 0 310.618 324.416">
  <g id="Path_7" data-name="Path 7" fill="#fff">
    <path d="M48.389.568.513,98.528,22.7,287.7l144.8,36.2L309.957,276.02l-40.87-101.591L291.273,56.49,231.72.568,137.135,19.124Z" stroke="none"/>
    <path d="M 167.5165100097656 324.4163513183594 L 167.3748016357422 324.3809509277344 L 22.5784797668457 288.181884765625 L 22.2437858581543 288.0981750488281 L 22.20361328125 287.7555236816406 L 0.01709898747503757 98.58617401123047 L 0 98.44048309326172 L 0.06441837549209595 98.30875396728516 L 47.94060516357422 0.3490509688854218 L 48.11119842529297 0 L 48.49146270751953 0.07955143600702286 L 137.1384887695313 18.61406135559082 L 231.6239624023438 0.0782712996006012 L 231.8752288818359 0.02901646308600903 L 232.0619201660156 0.2042734622955322 L 291.6152038574219 56.12631225585938 L 291.8147888183594 56.31370162963867 L 291.7641906738281 56.58271026611328 L 269.6046447753906 174.3782043457031 L 310.4201354980469 275.8338928222656 L 310.6177673339844 276.3249816894531 L 310.1159362792969 276.49365234375 L 167.6549987792969 324.3698425292969 L 167.5165100097656 324.4163513183594 Z M 23.15536499023438 287.2965698242188 L 167.4752960205078 323.3765258789063 L 309.2959899902344 275.7155151367188 L 268.6236267089844 174.6157073974609 L 268.5691833496094 174.4803771972656 L 268.5961303710938 174.3369445800781 L 290.7320251464844 56.66701889038086 L 231.5649566650391 1.107685208320618 L 137.2314910888672 19.61360549926758 L 137.1322174072266 19.63311195373535 L 137.0331573486328 19.61238479614258 L 48.66732788085938 1.136640667915344 L 1.026122093200684 98.61549377441406 L 23.15536499023438 287.2965698242188 Z" stroke="none" fill="#fff"/>
  </g>
</svg>
