<svg xmlns="http://www.w3.org/2000/svg" width="401.642" height="340.848" viewBox="0 0 401.642 340.848">
  <g id="Path_6" data-name="Path 6" fill="#fff">
    <path d="M97.455,26.338,35.566,149.987.535,273.765l35.031,66.56,345.643-26.857,19.851-72.4L338,203.7l25.69-143.629L229.406.52Z" stroke="none"/>
    <path d="M 35.27731323242188 340.847900390625 L 35.12430572509766 340.55712890625 L 0.09290144592523575 273.9975280761719 L 0 273.8209838867188 L 0.05437538772821426 273.6289672851563 L 35.08565902709961 149.8514404296875 L 35.09846115112305 149.8060760498047 L 35.11955261230469 149.7639007568359 L 97.00837707519531 26.11457252502441 L 97.11822509765625 25.89518165588379 L 97.3590087890625 25.84799957275391 L 229.3106384277344 0.03017468191683292 L 229.4651184082031 0 L 229.6089782714844 0.06382402777671814 L 363.8958129882813 59.61712646484375 L 364.25390625 59.77592468261719 L 364.1849060058594 60.16155242919922 L 338.55615234375 203.4491729736328 L 401.3146362304688 240.6394348144531 L 401.642333984375 240.8337097167969 L 401.5416259765625 241.2010498046875 L 381.6905822753906 313.5992126464844 L 381.5978088378906 313.9378356933594 L 381.247802734375 313.965087890625 L 35.60490798950195 340.8224182128906 L 35.27731323242188 340.847900390625 Z M 1.069707751274109 273.7090148925781 L 35.85496139526367 339.8012390136719 L 380.8203430175781 312.9964904785156 L 400.477783203125 241.304443359375 L 337.7490539550781 204.1317901611328 L 337.4511108398438 203.9552459716797 L 337.5120544433594 203.6142425537109 L 363.1327514648438 60.37125015258789 L 229.3479461669922 1.040569305419922 L 97.79169464111328 26.78109741210938 L 36.0338134765625 150.1687316894531 L 1.069707751274109 273.7090148925781 Z" stroke="none" fill="#fff"/>
  </g>
</svg>
