<svg xmlns="http://www.w3.org/2000/svg" width="273.303" height="363.849" viewBox="0 0 273.303 363.849">
  <g id="Path_8" data-name="Path 8" fill="#fff">
    <path d="M142.889.543,8.153,95.895l6.91,114.7L.553,311.472l148.555,51.822,105.025-73.241,18.656-134.045L212.676,19.2Z" stroke="none"/>
    <path d="M 149.1844787597656 363.8494262695313 L 148.9435729980469 363.7654418945313 L 0.3883695006370544 311.94384765625 L 0 311.8084106445313 L 0.05858155712485313 311.4012756347656 L 14.56138706207275 210.5722198486328 L 7.654860019683838 95.92458343505859 L 7.638156890869141 95.64740753173828 L 7.864863395690918 95.48696136474609 L 142.6009216308594 0.1352679282426834 L 142.7920837402344 0 L 143.0183715820313 0.06047128513455391 L 212.8047790527344 18.71628952026367 L 213.0365447998047 18.77822303771973 L 213.1329956054688 18.99785804748535 L 273.2459411621094 155.8067016601563 L 273.3028869628906 155.9362945556641 L 273.2833862304688 156.0764465332031 L 254.6276245117188 290.12158203125 L 254.5975189208984 290.3376159667969 L 254.4186553955078 290.46240234375 L 149.3936920166016 363.7035522460938 L 149.1844787597656 363.8494262695313 Z M 1.105673551559448 311.1363220214844 L 149.0316009521484 362.7384033203125 L 253.6685028076172 289.7679138183594 L 272.2746276855469 156.0789489746094 L 212.3151702880859 19.61921310424805 L 142.9866638183594 1.085861921310425 L 8.668485641479492 96.14178466796875 L 15.56135845184326 210.5630187988281 L 15.5644063949585 210.6137390136719 L 15.55721282958984 210.6640930175781 L 1.105673551559448 311.1363220214844 Z" stroke="none" fill="#fff"/>
  </g>
</svg>
