<svg xmlns="http://www.w3.org/2000/svg" width="186.157" height="186.539" viewBox="0 0 186.157 186.539">
  <g>
    <path d="M113.6,25.945,44.7,43.814,25.079,111.429l49.294,51.045,66.45-19.118L162.894,76.99Z" />
    <path d="M 74.22185516357422 163.0366821289063 L 74.01325225830078 162.8205718994141 L 24.71964836120605 111.7756195068359 L 24.51866722106934 111.5675048828125 L 24.59928512573242 111.2895965576172 L 44.21624374389648 43.67501831054688 L 44.29545974731445 43.40204620361328 L 44.57047653198242 43.33072280883789 L 113.4746398925781 25.46151924133301 L 113.7567825317383 25.38830757141113 L 113.959228515625 25.59800720214844 L 163.2528381347656 76.64295959472656 L 163.4629058837891 76.86052703857422 L 163.3675079345703 77.14752197265625 L 141.2961883544922 143.5135955810547 L 141.2131805419922 143.7632293701172 L 140.9603881835938 143.8359527587891 L 74.510498046875 162.9536437988281 L 74.22185516357422 163.0366821289063 Z M 25.6391544342041 111.2899627685547 L 74.52305603027344 161.9107666015625 L 140.4314422607422 142.9488067626953 L 162.3243103027344 77.11923217773438 L 113.4432144165039 26.50141716003418 L 45.09630584716797 44.2262077331543 L 25.6391544342041 111.2899627685547 Z"/>
  </g>
</svg>
