<svg xmlns="http://www.w3.org/2000/svg" width="174.71" height="165.817" viewBox="0 0 174.71 165.817">
  <g>
    <path d="M77.5,13.219,22.6,58.534,33.4,128.1l66.248,25.43,52.145-45.409-8.044-69.476Z" />
    <path d="M 99.74981689453125 154.1081390380859 L 99.46940612792969 154.00048828125 L 33.22171783447266 128.5704193115234 L 32.95160675048828 128.4667358398438 L 32.90723037719727 128.1807708740234 L 22.11103248596191 58.61063385009766 L 22.06750679016113 58.32985687255859 L 22.28653335571289 58.14892959594727 L 77.18305969238281 12.83374977111816 L 77.40787506103516 12.64822101593018 L 77.68000030517578 12.7526741027832 L 143.9276885986328 38.18276977539063 L 144.2100524902344 38.29115295410156 L 144.2448577880859 38.59156036376953 L 152.2890014648438 108.0674285888672 L 152.3191833496094 108.3286972045898 L 152.1208801269531 108.5014572143555 L 99.97634124755859 153.9108734130859 L 99.74981689453125 154.1081390380859 Z M 33.84977722167969 127.7416839599609 L 99.54695129394531 152.9604644775391 L 151.2665405273438 107.9210052490234 L 143.2875061035156 39.00684356689453 L 77.59416961669922 13.78952503204346 L 23.14160346984863 58.73828125 L 33.84977722167969 127.7416839599609 Z" />
  </g>
</svg>
